<svg width="4136" height="2275" viewBox="0 0 4136 2275" fill="none" xmlns="http://www.w3.org/2000/svg">
<path d="M20.0706 20.5483L0 41.0969V1137.81V2234.53L20.5485 2254.6L41.0969 2274.67H314.439H588.259L609.286 2252.68L630.79 2230.7L631.746 2027.13L633.179 1823.08L901.265 1820.69L1168.87 1818.3L1245.33 1742.32L1321.31 1666.34V912.256V157.698L1242.46 78.8486L1163.62 0H602.118H40.1412L20.0706 20.5483ZM701.037 460.668C707.249 466.402 708.205 1274.48 702.471 1285.47C698.17 1293.6 692.435 1295.03 662.807 1295.03C641.781 1295.03 625.533 1292.64 622.188 1289.3C617.887 1285 616.454 1186.08 616.454 873.548V463.057L627.445 458.756C639.392 453.5 695.303 454.933 701.037 460.668Z" fill="black"/>
<path d="M1494.3 80.2822L1414.5 160.565V1137.33V2114.1L1494.3 2194.38L1574.11 2274.67H2076.35H2578.11L2658.4 2194.38L2738.2 2114.58V1137.33V160.087L2657.92 79.8044L2578.11 0H2076.35H1574.11L1494.3 80.2822ZM2109.32 458.756L2121.75 463.535V1136.38C2121.75 1653.43 2120.31 1810.65 2116.01 1814.95C2112.67 1818.3 2096.42 1820.69 2075.39 1820.69C2046.24 1820.69 2040.03 1819.26 2035.73 1811.61C2030 1800.62 2029.04 474.048 2034.78 465.446C2036.69 462.579 2041.47 458.756 2045.29 457.323C2057.24 453.022 2096.42 453.5 2109.32 458.756Z" fill="black"/>
<path d="M2843.81 21.5042C2820.87 46.3535 2821.35 41.5747 2831.39 152.441C2835.21 195.927 2841.42 279.077 2845.72 336.899C2850.02 394.722 2856.24 481.694 2860.06 530.437C2863.88 579.18 2870.09 663.763 2874.4 719.196C2878.22 774.151 2884.91 860.168 2888.73 910.344C2892.55 960.043 2899.24 1047.49 2903.07 1103.88C2907.37 1160.27 2912.62 1229.08 2915.01 1256.8C2917.4 1284.52 2920.75 1329.44 2922.18 1357.15C2924.09 1384.87 2927.92 1443.65 2931.74 1488.57C2935.56 1533.01 2941.77 1617.12 2946.08 1674.94C2949.9 1732.76 2956.59 1815.43 2960.41 1858.92C2964.71 1902.41 2967.58 1949.71 2967.58 1964.53C2967.58 1979.34 2970.93 2023.31 2974.75 2062.49C2981.92 2129.87 2982.87 2134.17 2995.3 2145.16C3002.46 2151.38 3020.15 2167.62 3034.48 2181C3048.82 2194.86 3078.45 2221.15 3100.43 2240.26L3139.61 2274.67H3480.81H3821.54L3844.95 2254.12C3857.38 2243.13 3874.58 2228.31 3882.23 2220.67C3890.35 2213.5 3913.76 2192.95 3933.84 2175.27C3977.32 2137.52 3985.45 2122.7 3985.45 2084.95C3985.45 2069.66 3988.31 2019.48 3992.14 1973.61C3996.44 1927.73 4002.65 1843.63 4006.95 1787.24C4010.77 1730.85 4017.46 1643.4 4021.29 1593.7C4035.62 1403.03 4042.79 1308.41 4049.96 1209.01C4054.26 1152.63 4059.52 1083.81 4061.9 1056.1C4064.29 1028.38 4067.64 986.326 4069.07 962.91C4073.37 888.362 4086.28 722.063 4093.44 645.126C4097.27 604.029 4100.13 558.153 4100.13 542.384C4100.13 526.614 4103 479.305 4107.3 437.252C4111.13 395.199 4117.82 313.483 4121.64 255.661C4125.94 197.839 4130.72 128.069 4133.11 100.353C4137.41 45.8755 4136.45 41.5747 4113.04 15.7698L4098.7 0H3892.74H3686.78L3606.49 80.2822L3526.69 160.087V984.892C3526.69 1619.51 3525.26 1810.65 3520.95 1814.95C3517.61 1818.3 3501.36 1820.69 3481.29 1820.69C3461.22 1820.69 3444.97 1818.3 3441.63 1814.95C3437.33 1810.65 3435.89 1619.51 3435.89 985.37V161.042L3356.09 80.7603L3276.28 0H3069.84H2863.88L2843.81 21.5042Z" fill="black"/>
</svg>
